<?xml version="1.0" encoding="UTF-8" standalone="no"?>
<!-- Created with Inkscape (http://www.inkscape.org/) -->

<svg
   xmlns:dc="http://purl.org/dc/elements/1.1/"
   xmlns:cc="http://creativecommons.org/ns#"
   xmlns:rdf="http://www.w3.org/1999/02/22-rdf-syntax-ns#"
   xmlns:svg="http://www.w3.org/2000/svg"
   xmlns="http://www.w3.org/2000/svg"
   xmlns:sodipodi="http://sodipodi.sourceforge.net/DTD/sodipodi-0.dtd"
   xmlns:inkscape="http://www.inkscape.org/namespaces/inkscape"
   width="5000"
   height="880"
   viewBox="0 0 1322.9167 232.83334"
   version="1.1"
   id="svg8"
   inkscape:version="0.92.4 (5da689c313, 2019-01-14)"
   sodipodi:docname="logo-text.svg"
   inkscape:export-filename="C:\Users\Alex\Pictures\Logos\floater simple square.png"
   inkscape:export-xdpi="96"
   inkscape:export-ydpi="96">
  <defs
     id="defs2">
    <filter
       inkscape:collect="always"
       style="color-interpolation-filters:sRGB"
       id="filter1322"
       x="-0.057229612"
       width="1.1144592"
       y="-0.1762215"
       height="1.352443">
      <feGaussianBlur
         inkscape:collect="always"
         stdDeviation="2.4781149"
         id="feGaussianBlur1324" />
    </filter>
    <filter
       inkscape:collect="always"
       style="color-interpolation-filters:sRGB"
       id="filter1322-7"
       x="-0.057229612"
       width="1.1144592"
       y="-0.1762215"
       height="1.352443">
      <feGaussianBlur
         inkscape:collect="always"
         stdDeviation="2.4781149"
         id="feGaussianBlur1324-5" />
    </filter>
  </defs>
  <sodipodi:namedview
     id="base"
     pagecolor="#ffffff"
     bordercolor="#666666"
     borderopacity="1.0"
     inkscape:pageopacity="0.0"
     inkscape:pageshadow="2"
     inkscape:zoom="0.49497474"
     inkscape:cx="2756.7116"
     inkscape:cy="-23.305855"
     inkscape:document-units="mm"
     inkscape:current-layer="layer1"
     showgrid="false"
     units="px"
     inkscape:window-width="3840"
     inkscape:window-height="2035"
     inkscape:window-x="-13"
     inkscape:window-y="-13"
     inkscape:window-maximized="1"
     fit-margin-top="0"
     fit-margin-left="0"
     fit-margin-right="0"
     fit-margin-bottom="0">
    <inkscape:grid
       type="axonomgrid"
       id="grid889"
       units="mm"
       empspacing="5"
       originx="-2.4867405"
       originy="-36.585933" />
  </sodipodi:namedview>
  <metadata
     id="metadata5">
    <rdf:RDF>
      <cc:Work
         rdf:about="">
        <dc:format>image/svg+xml</dc:format>
        <dc:type
           rdf:resource="http://purl.org/dc/dcmitype/StillImage" />
        <dc:title></dc:title>
      </cc:Work>
    </rdf:RDF>
  </metadata>
  <g
     inkscape:groupmode="layer"
     id="layer1"
     inkscape:label="Layer 5">
    <path
       style="display:inline;opacity:1;fill:#58fbdd;fill-opacity:1;stroke:#1cfccf;stroke-width:0.51874745px;stroke-linecap:butt;stroke-linejoin:round;stroke-opacity:1"
       d="m 1.2802072,118.37645 v 23.27254 L 101.41207,223.10283 c 14.30455,11.63625 14.30455,11.63625 28.6091,0 L 230.15304,141.64899 V 118.37645 L 130.02117,199.8303 c -14.30455,11.63625 -14.30455,11.63625 -28.6091,0 z"
       id="path829-4"
       inkscape:connector-curvature="0"
       sodipodi:nodetypes="ccccccccc" />
    <path
       style="display:inline;opacity:1;fill:#58fbdd;fill-opacity:1;stroke:#1cfccf;stroke-width:0.51874745px;stroke-linecap:butt;stroke-linejoin:round;stroke-opacity:1"
       d="M 1.2802072,118.37645 101.41207,199.8303 c 14.30455,11.63625 14.30455,11.63625 28.6091,0 l 85.82731,-69.81758 14.30456,-11.63627 -14.30456,-11.63626 -100.13186,-81.453841 z"
       id="path827-7"
       inkscape:connector-curvature="0"
       sodipodi:nodetypes="cccccccc" />
    <path
       style="display:inline;fill:#4bfbda;fill-opacity:1;stroke:#233049;stroke-width:1.10895503;stroke-linecap:round;stroke-linejoin:round;stroke-miterlimit:4;stroke-dasharray:none;stroke-opacity:1"
       d="m 23.977768,107.98666 v 12.43774 l 76.449062,62.18867 c 15.28979,12.43772 15.28979,12.43772 30.57961,0 l 76.44902,-62.18867 v -12.43774 l -76.44902,62.18868 c -15.28982,12.43773 -15.28982,12.43773 -30.57961,0 z"
       id="path834-0"
       inkscape:connector-curvature="0"
       sodipodi:nodetypes="ccccccccc" />
    <path
       style="display:inline;fill:#58fbdd;fill-opacity:1;stroke:#1cfccf;stroke-width:0.66198075;stroke-linecap:butt;stroke-linejoin:round;stroke-miterlimit:4;stroke-dasharray:none;stroke-opacity:1"
       d="m 23.977768,107.98666 76.449062,62.18868 c 15.28979,12.43773 15.28979,12.43773 30.57961,0 l 76.44902,-62.18868 -91.73884,-74.626399 z"
       id="path832-5"
       inkscape:connector-curvature="0"
       sodipodi:nodetypes="cccccc" />
    <path
       style="display:inline;fill:#58fbdd;fill-opacity:1;stroke:#1cfccf;stroke-width:1.10895503;stroke-linecap:round;stroke-linejoin:round;stroke-miterlimit:4;stroke-dasharray:none;stroke-opacity:1"
       d="m 23.977768,107.98665 v 12.43773 l 76.449062,62.18868 c 15.28978,12.43773 15.28978,12.43773 30.57959,0 l 76.44903,-62.18868 v -12.43773 l -76.44903,62.18868 c -15.28981,12.43773 -15.28981,12.43773 -30.57959,0 z"
       id="path834-5-9"
       inkscape:connector-curvature="0"
       sodipodi:nodetypes="ccccccccc" />
    <path
       style="display:inline;fill:#58fbdd;fill-opacity:1;stroke:#1bfccf;stroke-width:0.55447733px;stroke-linecap:butt;stroke-linejoin:miter;stroke-opacity:1"
       d="m 23.977768,75.730542 v 12.437745 l 76.449062,62.188723 c 15.28979,12.43775 15.28979,12.43775 30.57961,0 L 207.45546,88.168287 V 75.730542 l -76.44902,62.188738 c -15.28982,12.43773 -15.28982,12.43773 -30.57961,0 z"
       id="path839-7"
       inkscape:connector-curvature="0"
       sodipodi:nodetypes="ccccccccc" />
    <path
       style="display:inline;fill:none;fill-opacity:1;stroke:#1bfccf;stroke-width:0.26458332px;stroke-linecap:butt;stroke-linejoin:miter;stroke-opacity:1;filter:url(#filter1322-7)"
       d="m 67.564539,96.945035 v 5.000005 l 43.301271,25 c 8.66025,5 8.66025,5 17.32051,0 l 43.30127,-25 v -5.000005 l -43.30127,25.000005 c -8.66026,5 -8.66026,5 -17.32051,0 z"
       id="path839-4-6"
       inkscape:connector-curvature="0"
       sodipodi:nodetypes="ccccccccc"
       transform="matrix(1.7655147,0,0,2.4875473,-95.308423,-165.42477)" />
    <path
       style="display:inline;fill:#58fbdd;fill-opacity:1;stroke:#1bfbce;stroke-width:0.55535048;stroke-linecap:butt;stroke-linejoin:miter;stroke-miterlimit:4;stroke-dasharray:none;stroke-opacity:1"
       d="m 23.977768,75.730542 76.449062,62.188738 c 15.28979,12.43773 15.28979,12.43773 30.57961,0 L 207.45546,75.730542 115.71662,1.1039277 Z"
       id="path837-3"
       inkscape:connector-curvature="0"
       sodipodi:nodetypes="cccccc" />
    <text
       xml:space="preserve"
       style="font-style:normal;font-variant:normal;font-weight:normal;font-stretch:normal;font-size:123.47222137px;line-height:1.25;font-family:'Segoe UI';-inkscape-font-specification:'Segoe UI';letter-spacing:0px;word-spacing:0px;fill:#53fbdc;fill-opacity:1;stroke:none;stroke-width:0.26458332"
       x="328.8808"
       y="164.77538"
       id="text1573"><tspan
         sodipodi:role="line"
         id="tspan1571"
         x="328.8808"
         y="164.77538"
         style="font-style:normal;font-variant:normal;font-weight:normal;font-stretch:normal;font-size:123.47222137px;font-family:'Segoe UI';-inkscape-font-specification:'Segoe UI';fill:#ffffff;fill-opacity:1;stroke-width:0.26458332">fluentvalidation-ts</tspan></text>
  </g>
  <g
     inkscape:groupmode="layer"
     id="layer2"
     inkscape:label="Layer 2"
     style="display:inline;opacity:1"
     transform="translate(-2.4867404,31.294272)">
    <path
       style="display:inline;fill:#141c2f;fill-opacity:1;stroke:#1cfccf;stroke-width:0.46143207px;stroke-linecap:butt;stroke-linejoin:round;stroke-opacity:1"
       d="m 16.987974,84.142031 v 20.701189 l 89.068496,72.45417 c 12.72407,10.35058 12.72407,10.35058 25.44814,0 l 89.06848,-72.45417 V 84.142031 L 131.50461,156.5962 c -12.72407,10.35059 -12.72407,10.35059 -25.44814,0 z"
       id="path829"
       inkscape:connector-curvature="0"
       sodipodi:nodetypes="ccccccccc" />
    <path
       style="display:inline;fill:#141c2f;fill-opacity:1;stroke:#1cfccf;stroke-width:0.46143207px;stroke-linecap:butt;stroke-linejoin:round;stroke-opacity:1"
       d="M 16.987974,84.142031 106.05647,156.5962 c 12.72407,10.35059 12.72407,10.35059 25.44814,0 L 207.84902,94.492627 220.57309,84.142031 207.84902,73.791429 118.78054,1.3372462 Z"
       id="path827"
       inkscape:connector-curvature="0"
       sodipodi:nodetypes="cccccccc" />
  </g>
  <g
     inkscape:groupmode="layer"
     id="layer3"
     inkscape:label="Layer 3"
     style="display:inline"
     transform="translate(-2.4867404,31.294272)">
    <path
       style="fill:#4bfbda;fill-opacity:1;stroke:#233049;stroke-width:0.98642856;stroke-linecap:round;stroke-linejoin:round;stroke-miterlimit:4;stroke-dasharray:none;stroke-opacity:1"
       d="m 37.177731,74.90019 v 11.063519 l 68.002349,55.317551 c 13.60046,11.06352 13.60046,11.06352 27.20093,0 L 200.38333,85.963709 V 74.90019 l -68.00232,55.31757 c -13.60047,11.0635 -13.60047,11.0635 -27.20093,0 z"
       id="path834"
       inkscape:connector-curvature="0"
       sodipodi:nodetypes="ccccccccc" />
    <path
       style="display:inline;fill:#141c2f;fill-opacity:1;stroke:#1cfccf;stroke-width:0.58883971;stroke-linecap:butt;stroke-linejoin:round;stroke-miterlimit:4;stroke-dasharray:none;stroke-opacity:1"
       d="m 37.177731,74.90019 68.002349,55.31757 c 13.60046,11.0635 13.60046,11.0635 27.20093,0 L 200.38333,74.90019 118.78054,8.5190859 Z"
       id="path832"
       inkscape:connector-curvature="0"
       sodipodi:nodetypes="cccccc" />
    <path
       style="display:inline;fill:#58fbdd;fill-opacity:1;stroke:#1cfccf;stroke-width:0.98642856;stroke-linecap:round;stroke-linejoin:round;stroke-miterlimit:4;stroke-dasharray:none;stroke-opacity:1"
       d="m 37.177727,74.900178 v 11.063516 l 68.002353,55.317556 c 13.60045,11.06353 13.60045,11.06353 27.20092,0 L 200.38332,85.963694 V 74.900178 L 132.381,130.21775 c -13.60047,11.0635 -13.60047,11.0635 -27.20092,0 z"
       id="path834-5"
       inkscape:connector-curvature="0"
       sodipodi:nodetypes="ccccccccc" />
  </g>
  <g
     inkscape:groupmode="layer"
     id="layer4"
     inkscape:label="Layer 4"
     style="display:inline"
     transform="translate(-2.4867404,31.294272)">
    <path
       style="display:inline;fill:#141c2f;fill-opacity:1;stroke:#1bfccf;stroke-width:0.49321416px;stroke-linecap:butt;stroke-linejoin:miter;stroke-opacity:1"
       d="m 37.177731,46.207954 v 11.063524 l 68.002349,55.317652 c 13.60046,11.06352 13.60046,11.06352 27.20093,0 L 200.38333,57.271478 V 46.207954 l -68.00232,55.317636 c -13.60047,11.06354 -13.60047,11.06354 -27.20093,0 z"
       id="path839"
       inkscape:connector-curvature="0"
       sodipodi:nodetypes="ccccccccc" />
    <path
       style="display:inline;fill:none;fill-opacity:1;stroke:#1bfccf;stroke-width:0.26458332px;stroke-linecap:butt;stroke-linejoin:miter;stroke-opacity:1;filter:url(#filter1322)"
       d="m 67.564539,96.945035 v 5.000005 l 43.301271,25 c 8.66025,5 8.66025,5 17.32051,0 l 43.30127,-25 v -5.000005 l -43.30127,25.000005 c -8.66026,5 -8.66026,5 -17.32051,0 z"
       id="path839-4"
       inkscape:connector-curvature="0"
       sodipodi:nodetypes="ccccccccc"
       transform="matrix(1.5704464,0,0,2.2127029,-68.928757,-168.30253)" />
    <path
       style="display:inline;fill:#141c2f;fill-opacity:1;stroke:#1bfbce;stroke-width:0.4939909;stroke-linecap:butt;stroke-linejoin:miter;stroke-miterlimit:4;stroke-dasharray:none;stroke-opacity:1"
       d="m 37.177731,46.207954 68.002349,55.317636 c 13.60046,11.06354 13.60046,11.06354 27.20093,0 l 68.00232,-55.317636 -81.60279,-66.381259 z"
       id="path837"
       inkscape:connector-curvature="0"
       sodipodi:nodetypes="cccccc" />
    <path
       style="display:inline;fill:#1cfccf;fill-opacity:1;stroke-width:3.93281913"
       id="path917"
       d="M 151.72963,19.233075 C 134.70973,5.3878794 107.08304,5.3878794 90.063006,19.233151 73.043015,33.078339 73.043015,55.551739 90.062917,69.396849 107.08286,83.241965 134.70943,83.2419 151.72943,69.3967 c 17.02001,-13.845215 17.02011,-36.318488 2e-4,-50.163625 z M 96.229576,64.380467 c -13.59749,-11.0611 -13.597399,-29.069792 1.09e-4,-40.130905 13.597565,-11.061194 35.735775,-11.061245 49.333265,-1.03e-4 13.59738,11.061012 13.59732,29.069705 -2e-4,40.130857 -13.59751,11.061113 -35.73577,11.061165 -49.333174,1.51e-4 z m 52.447384,-19.639248 -40.63818,1.53e-4 -0.0307,-12.967298 -8.694944,2.4e-5 -1.6e-4,20.065459 49.333274,-1.26e-4 z"
       inkscape:connector-curvature="0" />
  </g>
</svg>
